<svg xmlns="http://www.w3.org/2000/svg" viewBox="0 0 100 100"><g><path fill="#FF1493" d="M40.63,72.58c0-2.85-2.32-5.17-5.17-5.17c-2.85,0-5.17,2.32-5.17,5.17c0,2.85,2.32,5.17,5.17,5.17   C38.31,77.74,40.63,75.43,40.63,72.58z M33.06,72.58c0-1.32,1.08-2.4,2.4-2.4c1.32,0,2.4,1.08,2.4,2.4c0,1.32-1.08,2.4-2.4,2.4   C34.14,74.98,33.06,73.9,33.06,72.58z"/><path fill="#FF1493" d="M54.9,76.74c0-2.85-2.32-5.17-5.17-5.17c-2.85,0-5.17,2.32-5.17,5.17s2.32,5.17,5.17,5.17   C52.58,81.91,54.9,79.59,54.9,76.74z M47.33,76.74c0-1.32,1.08-2.4,2.4-2.4c1.32,0,2.4,1.08,2.4,2.4s-1.08,2.4-2.4,2.4   C48.4,79.14,47.33,78.06,47.33,76.74z"/><path fill="#FF1493" d="M69.17,72.58c0-2.85-2.32-5.17-5.17-5.17c-2.85,0-5.17,2.32-5.17,5.17c0,2.85,2.32,5.17,5.17,5.17   C66.85,77.74,69.17,75.43,69.17,72.58z M61.6,72.58c0-1.32,1.08-2.4,2.4-2.4c1.32,0,2.4,1.08,2.4,2.4c0,1.32-1.08,2.4-2.4,2.4   C62.67,74.98,61.6,73.9,61.6,72.58z"/><path fill="#FF1493" d="M72.91,85.21c-0.04-1.71-1.19-3.4-3.34-4.9c-1.57-1.11-3.45-1.69-5.42-1.69H63.8c-1.97,0-3.84,0.58-5.4,1.69   c-1.91,1.33-3.01,2.75-3.28,4.24c-1.57-0.94-3.38-1.44-5.27-1.44h-0.39c-1.86,0-3.63,0.48-5.19,1.39c-0.3-1.47-1.41-2.9-3.26-4.19   c-1.57-1.11-3.45-1.69-5.42-1.69h-0.35c-1.98,0-3.85,0.58-5.41,1.69c-2.15,1.5-3.3,3.19-3.34,4.9c-0.07,0.58-0.49,4.42-0.67,6.4   c-0.07,0.67,0.15,1.33,0.6,1.83c0.45,0.5,1.1,0.79,1.77,0.79h11.34c-0.12,1.11-0.23,2.24-0.31,3.06c-0.06,0.69,0.17,1.39,0.64,1.9   c0.47,0.52,1.14,0.81,1.84,0.81H57.6c0.7,0,1.37-0.3,1.84-0.81c0.47-0.51,0.7-1.21,0.64-1.9c-0.07-0.82-0.19-1.95-0.31-3.06h11.44   c0.67,0,1.31-0.28,1.76-0.78c0.45-0.49,0.68-1.16,0.62-1.83C73.4,89.65,72.97,85.77,72.91,85.21z M39.97,90.23   c-0.02,0.17-0.07,0.62-0.14,1.24H28.61c0.2-2.2,0.63-5.97,0.63-6.01c0.01-0.05,0.01-0.1,0.01-0.15c0-0.77,0.79-1.76,2.16-2.72   c1.1-0.78,2.42-1.19,3.83-1.19h0.35c1.4,0,2.72,0.41,3.83,1.19c1.37,0.95,2.16,1.94,2.16,2.72c0,0.05,0,0.1,0.01,0.15l0.12,1.07   C40.58,87.71,39.99,88.95,39.97,90.23z M42.01,97.24c0.23-2.39,0.71-6.73,0.71-6.77c0.01-0.05,0.01-0.1,0.01-0.15   c0-0.66,0.46-1.42,1.31-2.21c0.02-0.02,0.04-0.04,0.06-0.06c0.31-0.28,0.66-0.56,1.07-0.84c1.24-0.87,2.73-1.33,4.29-1.33h0.39   c1.56,0,3.05,0.46,4.29,1.33c0.45,0.31,0.84,0.63,1.17,0.94c0.01,0.01,0.02,0.02,0.03,0.03c0.81,0.76,1.24,1.5,1.24,2.14   c0,0.05,0,0.1,0.01,0.15c0.01,0.05,0.49,4.38,0.71,6.77H42.01z M59.48,91.46c-0.07-0.61-0.12-1.07-0.14-1.24   c-0.02-1.25-0.58-2.46-1.66-3.62c0.08-0.7,0.13-1.16,0.13-1.16c0.01-0.05,0.01-0.1,0.01-0.15c0-0.77,0.79-1.76,2.17-2.72   c1.1-0.78,2.42-1.19,3.82-1.19h0.36c1.4,0,2.72,0.41,3.83,1.19c1.37,0.95,2.16,1.94,2.16,2.72c0,0.05,0,0.1,0.01,0.15   c0,0.04,0.42,3.82,0.63,6.02H59.48z"/><path fill="#FF1493" d="M50.29,13.39c3.69,0,6.7-3,6.7-6.7s-3-6.7-6.7-6.7c-3.69,0-6.7,3-6.7,6.7S46.6,13.39,50.29,13.39z M50.29,2.76   c2.17,0,3.93,1.76,3.93,3.93c0,2.17-1.76,3.93-3.93,3.93c-2.17,0-3.93-1.76-3.93-3.93C46.36,4.53,48.12,2.76,50.29,2.76z"/><path fill="#FF1493" d="M77.74,55.65h-4.53l0.37-42.15c0.03-0.92-0.49-1.76-1.32-2.16l-2.71-1.3c-0.02-0.01-0.04-0.02-0.07-0.03   c-0.02-0.01-0.04-0.02-0.06-0.03l-5.05-2.42l-0.03-0.02l-0.11-0.05c-0.01,0-0.02-0.01-0.03-0.01l-0.01,0l-0.01,0V7.42   c0-1.82-1.49-3.31-3.31-3.31c-1.83,0-3.31,1.49-3.31,3.31c0,1.83,1.49,3.31,3.31,3.31c0.29,0,0.58-0.04,0.85-0.11h0   c-0.05,1.49-0.39,3.81-1.9,4.56c-4.67,2.34-8.75,1.46-9.17,1.36c-4.08-1.22-12.73-1.26-16.52,7.25c-1.55,3.51-2.65,6.4-3.3,8.21   c-0.39,1.09-0.31,2.3,0.21,3.34c0.53,1.04,1.47,1.82,2.59,2.16c2.16,0.63,4.44-0.53,5.19-2.65c0.82-2.29,1.77-4.66,2.82-7.05   l0.28,10.46c0,0,0,0.04-0.01,0.1l-3.19,17.27H22.26c-1.18,0-2.14,0.96-2.14,2.14v6.79c0,0.76,0.62,1.38,1.38,1.38H78.5   c0.76,0,1.38-0.62,1.38-1.38v-6.79C79.88,56.61,78.92,55.65,77.74,55.65z M69.99,13.32L69.99,13.32l0.83,0.4l-0.37,41.93H60.36   l-3.33-18.04c-0.01-0.06-0.01-0.12-0.01-0.18l0.62-12.61c2.05-0.4,4.07-1.09,5.99-2.05C67.82,20.68,69.44,16.78,69.99,13.32z    M44.65,38.87c0.05-0.27,0.06-0.5,0.05-0.72l-0.35-12.98c-0.02-0.81-0.53-1.52-1.29-1.82c-0.74-0.29-1.58-0.11-2.14,0.45   c-0.62,0.63-1.14,1.41-1.54,2.31c-1.18,2.65-2.24,5.28-3.15,7.82c-0.26,0.74-1.06,1.14-1.81,0.93c-0.4-0.12-0.72-0.39-0.91-0.76   c-0.18-0.36-0.21-0.77-0.07-1.16c0.63-1.77,1.71-4.59,3.22-8.02c3.02-6.77,9.97-6.7,13.23-5.72c0.02,0.01,0.05,0.01,0.07,0.02   c0.54,0.14,5.47,1.25,11.1-1.56c2.13-1.07,3.31-3.48,3.43-6.97l0,0l2.87,1.37c-0.32,2.96-1.49,6.5-4.97,8.24   c-1.87,0.93-3.82,1.57-5.83,1.9c-0.93,0.16-1.63,0.96-1.65,1.87l-0.65,13.21c-0.01,0.25,0,0.51,0.04,0.77c0,0.01,0,0.02,0.01,0.04   l3.25,17.56h-3.01L51.6,39.71c-0.2-0.97-1.06-1.67-2.05-1.67c-0.98,0-1.84,0.7-2.05,1.7l-2.95,15.92h-3.01L44.65,38.87z    M51.73,55.65h-4.37l2.19-11.81L51.73,55.65z M77.11,63.19H22.89v-4.78h16.99c0,0,0,0,0,0c0,0,0,0,0,0h13.5c0,0,0,0,0,0   c0,0,0,0,0,0h18.39c0,0,0.01,0,0.01,0h0.01c0,0,0.01,0,0.01,0h5.28V63.19z"/></g></svg>