<svg xmlns="http://www.w3.org/2000/svg" viewBox="0 0 95 95"><path fill="#FF1493" d="m32.96,76.55l1.38,2.38-3.13,1.81-1.38-2.38,3.13-1.81Zm8.21-56.38c-1.6-1.6-2.59-3.81-2.59-6.25s.99-4.65,2.59-6.25c1.6-1.6,3.81-2.59,6.25-2.59s4.65.99,6.25,2.59c1.6,1.6,2.59,3.81,2.59,6.25s-.99,4.65-2.59,6.25c-1.6,1.6-3.81,2.59-6.25,2.59s-4.65-.99-6.25-2.59Zm-.06-6.25c0,1.75.71,3.32,1.85,4.47,1.14,1.14,2.72,1.85,4.47,1.85s3.32-.71,4.47-1.85c1.14-1.14,1.85-2.72,1.85-4.47s-.71-3.32-1.85-4.47c-1.14-1.14-2.72-1.85-4.47-1.85s-3.33.71-4.47,1.85c-1.14,1.14-1.85,2.72-1.85,4.47ZM11.71,61.19c-1.6-1.6-2.59-3.81-2.59-6.25s.99-4.65,2.59-6.25c1.6-1.6,3.81-2.59,6.25-2.59s4.65.99,6.25,2.59c1.6,1.6,2.59,3.81,2.59,6.25s-.99,4.65-2.59,6.25c-1.6,1.6-3.81,2.59-6.25,2.59s-4.65-.99-6.25-2.59Zm-.06-6.25c0,1.75.71,3.32,1.85,4.47,1.14,1.14,2.72,1.85,4.47,1.85s3.32-.71,4.47-1.85c1.14-1.14,1.85-2.72,1.85-4.47s-.71-3.32-1.85-4.47c-1.14-1.14-2.72-1.85-4.47-1.85s-3.32.71-4.47,1.85c-1.14,1.14-1.85,2.72-1.85,4.47Zm59.28,6.25c-1.6-1.6-2.59-3.81-2.59-6.25s.99-4.65,2.59-6.25c1.6-1.6,3.81-2.59,6.25-2.59s4.65.99,6.25,2.59c1.6,1.6,2.59,3.81,2.59,6.25s-.99,4.65-2.59,6.25c-1.6,1.6-3.81,2.59-6.25,2.59s-4.65-.99-6.25-2.59Zm-.06-6.25c0,1.75.71,3.32,1.85,4.47,1.14,1.14,2.72,1.85,4.47,1.85s3.32-.71,4.47-1.85c1.14-1.14,1.85-2.72,1.85-4.47s-.71-3.32-1.85-4.47c-1.14-1.14-2.72-1.85-4.47-1.85s-3.33.71-4.47,1.85c-1.14,1.14-1.85,2.72-1.85,4.47Zm21.8,27.78c-.32.41-.72.76-1.18,1.03-.02.02-.05.03-.08.05-.48.28-1.02.47-1.57.55-1.45.21-2.99-.32-3.97-1.94l-.03-.05v3.19c0,2.25-2.54,3.6-5.79,4.12-1.09.17-2.28.26-3.46.26s-2.37-.09-3.46-.26c-3.24-.51-5.78-1.86-5.78-4.12v-7.11c0-.69-.08-1.32-.24-1.92-.16-.61-.41-1.19-.75-1.78l-5.22-9.05h0s0,0,0,0c-.97-1.69-.67-3.31.25-4.48.34-.43.77-.8,1.26-1.08.48-.28,1.02-.47,1.56-.55,1.47-.21,3.04.34,4.01,2.03l1.64,2.84c.11.19.25.33.42.43.17.1.37.15.58.15l11.98.03c.74,0,1.43.18,2.04.51.03.01.06.03.09.05.63.36,1.15.89,1.54,1.56l6.38,11.06c.97,1.69.66,3.31-.25,4.48Zm-1.93-3.23l-6.38-11.06c-.16-.27-.37-.49-.62-.63l-.05-.03c-.24-.13-.52-.19-.82-.19l-11.98-.03c-.67,0-1.3-.17-1.84-.49-.54-.32-1-.77-1.34-1.36l-1.64-2.84c-.37-.64-.94-.86-1.48-.78-.23.03-.46.11-.66.23-.2.12-.38.27-.53.46-.33.42-.43,1.02-.06,1.67h0s5.22,9.05,5.22,9.05c.46.79.79,1.57,1.01,2.39.22.82.33,1.67.33,2.57v7.11c0,.74,1.6,1.3,3.65,1.63.97.15,2.02.23,3.07.23s2.11-.08,3.07-.23c2.05-.32,3.65-.89,3.65-1.63v-7.9c0-.7.57-1.26,1.26-1.26.5,0,.93.29,1.14.71l2.29,3.97s.02.04.03.06c.37.6.93.8,1.44.73.23-.03.46-.11.66-.23.02-.01.04-.02.06-.03.18-.11.34-.26.48-.43.33-.42.43-1.02.06-1.67Zm-34.71-3.17l2.24,1.3,1.38-2.38-2.24-1.3-1.38,2.38Zm5.77-33.54c-.48.28-1.02.47-1.57.55-1.47.21-3.02-.33-3.99-1.99v3.19c0,2.25-2.54,3.6-5.79,4.11-1.09.17-2.27.26-3.46.26-1.18,0-2.37-.09-3.46-.26-3.24-.51-5.78-1.86-5.78-4.11v-7.11c0-.69-.08-1.32-.24-1.92-.16-.61-.41-1.19-.75-1.78h0s-5.23-9.05-5.23-9.05c-.97-1.69-.66-3.31.26-4.48.34-.43.77-.8,1.26-1.08.48-.28,1.02-.47,1.56-.55,1.47-.21,3.04.34,4.01,2.03l1.64,2.84c.11.19.25.33.42.43.17.1.37.15.58.15l11.98.03c.74,0,1.43.18,2.04.51.03.01.06.03.09.04.63.36,1.15.89,1.54,1.56l6.38,11.06c.97,1.69.67,3.31-.25,4.48-.32.41-.72.76-1.18,1.03-.02.02-.05.03-.08.05Zm-.67-4.31l-6.38-11.06c-.16-.27-.37-.49-.62-.63l-.05-.03c-.24-.13-.52-.19-.82-.2l-11.98-.03c-.67,0-1.3-.17-1.84-.49-.54-.32-1-.77-1.34-1.36l-1.64-2.84c-.37-.65-.94-.86-1.48-.78-.23.03-.46.11-.66.23-.2.12-.38.27-.53.46-.33.42-.43,1.02-.06,1.67l5.22,9.04h0c.45.79.79,1.57,1.01,2.39.22.82.33,1.67.33,2.57v7.11c0,.74,1.6,1.3,3.65,1.63.97.15,2.02.23,3.07.23s2.11-.08,3.07-.23c2.05-.32,3.65-.89,3.65-1.63v-7.9c0-.7.57-1.26,1.26-1.26.51,0,.95.3,1.15.74l2.27,3.94h0c.37.65.95.86,1.48.79.23-.03.46-.11.66-.23.02-.01.04-.02.05-.03.18-.11.34-.26.48-.43.33-.42.43-1.02.06-1.67Zm-12.33,12.02h-2.75v2.59h2.75v-2.59Zm11.72,28.42l3.13,1.81,1.38-2.38-3.13-1.81-1.38,2.38Zm-25.31-3.66l1.38,2.38,2.24-1.3-1.38-2.38-2.24,1.3Zm10.84-16.98h2.75v-2.59h-2.75v2.59Zm-12.45,2.94c.92,1.17,1.23,2.8.25,4.48h0s0,0,0,0l-5.22,9.05s-.02.04-.04.06c-.32.56-.55,1.13-.71,1.72-.16.6-.24,1.23-.24,1.92v7.11c0,2.25-2.53,3.6-5.78,4.12-1.09.17-2.28.26-3.46.26s-2.36-.09-3.46-.26c-3.25-.51-5.79-1.86-5.79-4.12v-3.19l-.03.05c-.98,1.63-2.51,2.15-3.96,1.94-.55-.08-1.08-.27-1.56-.55-.49-.28-.92-.65-1.26-1.08-.92-1.17-1.23-2.8-.26-4.49.01-.02.03-.04.04-.06l6.34-10.99c.39-.67.92-1.2,1.54-1.56.03-.02.06-.03.08-.05.61-.33,1.3-.51,2.04-.51l11.98-.03c.21,0,.41-.05.58-.15.17-.1.31-.24.42-.43l1.64-2.84c.98-1.69,2.54-2.24,4.01-2.03.55.08,1.08.27,1.56.55.49.28.92.65,1.26,1.08Zm-1.98,1.56c-.15-.19-.33-.34-.53-.46-.2-.12-.43-.2-.66-.23-.53-.08-1.1.14-1.48.78l-1.64,2.84c-.34.58-.8,1.04-1.34,1.36-.54.32-1.17.48-1.84.49l-11.98.03c-.3,0-.58.07-.82.19l-.05.03c-.25.15-.47.36-.62.63l-6.35,10.99s-.02.05-.04.07c-.37.65-.27,1.25.06,1.67.15.19.33.34.53.46.2.12.43.2.66.23.52.07,1.07-.13,1.45-.73,0-.02.02-.04.03-.06l2.29-3.97c.21-.42.64-.71,1.14-.71.7,0,1.26.57,1.26,1.26v7.9c0,.74,1.6,1.3,3.65,1.63.97.15,2.02.23,3.07.23s2.1-.08,3.07-.23c2.05-.32,3.65-.89,3.65-1.63v-7.11c0-.9.11-1.75.33-2.57.21-.79.53-1.55.97-2.32.01-.02.02-.05.04-.07l5.22-9.05h0c.37-.65.27-1.25-.06-1.67Zm21.21,8.53l2.34,1.35-1.37,2.38-2.61-1.51c-1.02.85-2.33,1.36-3.76,1.36s-2.72-.51-3.74-1.35l-2.62,1.51-1.37-2.38,2.33-1.35c-.3-.7-.46-1.48-.46-2.29,0-1.62.65-3.08,1.71-4.14.75-.75,1.7-1.29,2.76-1.55v-2.48h2.75v2.48c1.06.26,2.01.8,2.76,1.55,1.06,1.06,1.71,2.52,1.71,4.14,0,.8-.16,1.57-.46,2.27Zm-1.49-2.27c0-1.08-.44-2.05-1.14-2.76-.71-.71-1.68-1.14-2.76-1.14s-2.05.44-2.76,1.14c-.71.71-1.14,1.68-1.14,2.76s.44,2.05,1.14,2.76c.71.71,1.68,1.14,2.76,1.14s2.05-.44,2.76-1.14c.71-.71,1.14-1.68,1.14-2.76Z"/></svg>