<svg xmlns="http://www.w3.org/2000/svg" viewBox="0 0 64 64"><g fill="#FF1493"><path d="M51.0976563,42.9994011c-0.5527344,0-1,0.4477539-1,1v12.8740234    c-3.5878906-0.6694336-14.0605469-2.1484375-20.0654297,1.9570313V31.4393444    c1.6328125-0.9389648,8.0830078-4.0644531,20.0654297-2.9428711c0,0,0,3.5024414,0,3.5024414    c0.016201,1.311758,1.9813728,1.3149319,1.9999924-0.0000458c0.0000076,0.0000458,0.0000076-4.4062042,0.0000076-4.4062042    c0-0.5102539-0.3847656-0.9389648-0.8916016-0.9941406c-15.4208984-1.6762695-22.4667969,3.2636719-22.7587891,3.4750977    c-0.2498817,0.1940823-0.4110126,0.4907265-0.4150333,0.8105507c-0.0000057-0.0000038-0.0000057,27.9462833-0.0000057,27.9462833    c-6.0029297-4.1064453-16.4765625-2.6269531-20.0644531-1.9570313V28.4964733    c1.0498047-0.0981445,2.0898438-0.1674805,3.1025391-0.2055664c0.5517578-0.0214844,0.9824219-0.4858398,0.9609375-1.0375977    c-0.0214844-0.5522461-0.4833984-0.9824219-1.0371094-0.9614258c-1.3447266,0.0512695-2.7363281,0.1542969-4.1347656,0.3066406    c-0.5068359,0.0551758-0.8916016,0.4838867-0.8916016,0.9941406v30.5053692    c-0.0140033,0.6220589,0.62005,1.1330528,1.2256012,0.9741058c0.1542816-0.0356293,15.4843597-3.4911957,21.1035004,2.6049957    c0.2878723,0.2788048,0.7136517,0.416832,1.099617,0.2538795c5.4738503-6.2708206,21.2415543-3.0091324,21.4756584-2.8586502    c0.6027641,0.1556664,1.2429161-0.3504524,1.2254868-0.9743462c0.0000191,0.0000153,0.0000191-14.0986176,0.0000191-14.0986176    C52.0976563,43.447155,51.6503906,42.9994011,51.0976563,42.9994011z"/><path d="M13.3496094,28.987196v2.7944336c0,1.3048687,0.8994751,2.3945904,2.1083984,2.7056866v1.2069092    c0,2.2958984,1.8681641,4.1635742,4.1640625,4.1635742s4.1630859-1.8676758,4.1630859-4.1635742v-1.2068481    c1.2091675-0.3110352,2.109375-1.4008789,2.109375-2.7057476v-3.0263672c0-2.9418945,0.9814453-5.7871094,2.7675781-8.0146484    C37.114975,9.4378576,22.7257862-4.1631947,11.9276619,4.9433222c-4.5292096,3.9146471-5.150012,11.2634325-1.292778,15.8505182    C12.3857422,22.9627819,13.3496094,25.8724499,13.3496094,28.987196z M21.7851563,35.6942253    c-0.0755424,2.8539238-4.2526398,2.8513908-4.3271484-0.0000648c0,0.0000648,0-1.1093102,0-1.1093102h4.3271484V35.6942253z     M23.8945313,31.7816296c-0.0077877,0.6130657-0.5600739,0.8717136-1.1093884,0.8031788    c0.0000134,0.000042-6.3271351,0.000042-6.3271351,0.000042h-0.3056641c-0.4423828,0-0.8027344-0.3603516-0.8027344-0.8032207    c-0.0056868-0.5504341,0.0198135-3.0179424-0.0286865-3.5239258c2.1466103,0.0000019,6.4484921,0.0000019,8.5943604,0    C23.8790359,28.5299225,23.8992043,31.4369392,23.8945313,31.7816296z M13.2617188,6.4334841    c5.6877785-5.2377863,15.1441269-1.4591689,15.8573723,6.1700745c0.2471199,2.4930115-0.4716301,4.9407663-2.0204582,6.8894968    c-1.553833,1.9382324-2.5817261,4.2791748-2.99646,6.7646484h-3.479126v-8.8452148l2.7060547-2.7060556    c0.9205532-0.9282513-0.4855194-2.3350468-1.4141045-1.4140167c0.000042-0.0000458-2.2929268,2.292923-2.2929268,2.292923    l-2.2929688-2.2929688c-0.9282513-0.9205523-2.3350468,0.4855194-1.4140167,1.4141035    c-0.0000458-0.000041,2.707962,2.7079678,2.707962,2.7079678v8.8432617h-3.5010986    c-0.4214478-2.5284424-1.4238892-4.8528442-2.930542-6.7197266C9.0021734,15.7447748,9.5162649,9.6705971,13.2617188,6.4334841z"/><path d="M41.0322266,35.9994011c0,0.5522461,0.4472656,1,1,1h15c0.5527344,0,1-0.4477539,1-1s-0.4472656-1-1-1h-15    C41.4794922,34.9994011,41.0322266,35.447155,41.0322266,35.9994011z"/><path d="M57.0322266,39.9994011h-9c-1.3117943,0.0212479-1.3165703,1.9778023,0.0000458,2c-0.0000458,0,8.9999542,0,8.9999542,0    C58.3440208,41.9781532,58.3487968,40.0216026,57.0322266,39.9994011z"/><path d="M44.9677734,23.999403c4.9628906,0,9-4.0375977,9-9.000001c0-0.5522461-0.4472656-1-1-1s-1,0.4477539-1,1    c0,3.8598642-3.140625,7.000001-7,7.000001s-7-3.1401367-7-7.000001    c-0.0760269-5.7786922,6.9163704-9.1409531,11.371151-5.4686213c0.43256,0.3460627,1.0614662,0.2747736,1.4052162-0.1558905    c1.3575401-1.9614577-4.4121361-3.554481-5.7763023-3.3754625C33.0293121,6.49298,33.0303612,23.5064926,44.9677734,23.999403z"/><path d="M42.6748047,14.2923708c-0.9250603-0.920804-2.3367882,0.4856129-1.4140129,1.4141035    c-0.0000496-0.000041,2.9999504,2.9999599,2.9999504,2.9999599c0.390625,0.390625,1.0234375,0.390625,1.4140625,0l9-9.000001    c0.9173279-0.92451-0.4822998-2.337523-1.4141083-1.414012c0.0000458-0.0000505-8.292923,8.2929192-8.292923,8.2929192    L42.6748047,14.2923708z"/></g></svg>